<svg xmlns="http://www.w3.org/2000/svg" viewBox="0 0 100 100" width="100" height="100">
  <rect width="100" height="100" fill="#FAF6F0" rx="8"/>
  <rect x="10" y="10" width="25" height="25" fill="#1D1914" rx="3"/>
  <rect x="14" y="14" width="17" height="17" fill="#FAF6F0" rx="2"/>
  <rect x="18" y="18" width="9" height="9" fill="#1D1914" rx="1"/>
  <rect x="65" y="10" width="25" height="25" fill="#1D1914" rx="3"/>
  <rect x="69" y="14" width="17" height="17" fill="#FAF6F0" rx="2"/>
  <rect x="73" y="18" width="9" height="9" fill="#1D1914" rx="1"/>
  <rect x="10" y="65" width="25" height="25" fill="#1D1914" rx="3"/>
  <rect x="14" y="69" width="17" height="17" fill="#FAF6F0" rx="2"/>
  <rect x="18" y="73" width="9" height="9" fill="#1D1914" rx="1"/>
  <rect x="40" y="10" width="6" height="6" fill="#1D1914"/>
  <rect x="50" y="10" width="6" height="6" fill="#1D1914"/>
  <rect x="40" y="20" width="6" height="6" fill="#1D1914"/>
  <rect x="40" y="40" width="6" height="6" fill="#1D1914"/>
  <rect x="50" y="40" width="6" height="6" fill="#1D1914"/>
  <rect x="60" y="40" width="6" height="6" fill="#1D1914"/>
  <rect x="40" y="50" width="6" height="6" fill="#1D1914"/>
  <rect x="54" y="50" width="6" height="6" fill="#1D1914"/>
  <rect x="65" y="50" width="6" height="6" fill="#1D1914"/>
  <rect x="40" y="65" width="6" height="6" fill="#1D1914"/>
  <rect x="50" y="65" width="6" height="6" fill="#1D1914"/>
  <rect x="60" y="65" width="6" height="6" fill="#1D1914"/>
  <rect x="70" y="65" width="6" height="6" fill="#1D1914"/>
  <rect x="80" y="65" width="6" height="6" fill="#1D1914"/>
  <rect x="40" y="75" width="6" height="6" fill="#1D1914"/>
  <rect x="60" y="75" width="6" height="6" fill="#1D1914"/>
  <rect x="80" y="75" width="6" height="6" fill="#1D1914"/>
  <rect x="40" y="85" width="6" height="6" fill="#1D1914"/>
  <rect x="54" y="85" width="6" height="6" fill="#1D1914"/>
  <rect x="70" y="85" width="6" height="6" fill="#1D1914"/>
  <rect x="84" y="85" width="6" height="6" fill="#1D1914"/>
  <rect x="65" y="65" width="25" height="25" fill="#0F6B68" rx="4"/>
  <text x="77" y="82" text-anchor="middle" fill="#FAF6F0" font-size="10" font-weight="bold" font-family="sans-serif">▶</text>
</svg>
